#!OML:ASF H:\Terrain\Patient Classification 1\Terrain2\Thursday\justin.ASF
:FULLY-SPECIFIED
:DEGREES
3073
root 3.79266 17.3626 -22.7108 365.956 -444.633 -726.77
lowerback 6.10868 0.779454 2.31941
upperback 3.30692 1.05656 3.63312
thorax -0.0415283 0.474255 2.37426
lowerneck -11.7033 1.44228 -7.25621
upperneck 40.2685 2.20349 0.687651
head 16.3118 -0.669819 1.80359
rclavicle 5.96354e-016 -3.49861e-014
rhumerus -30.181 -14.1964 -76.8489
rradius 26.1595
rwrist -13.478
rhand -20.9197 10.5889
rfingers 7.12502
rthumb 5.45186 -19.3209
lclavicle 5.96354e-016 -3.49861e-014
lhumerus -37.752 8.19068 85.4389
lradius 25.7302
lwrist -3.18811
lhand -22.3439 19.3034
lfingers 7.12502
lthumb 4.07672 49.2442
rfemur -19.1128 -5.79919 21.6389
rtibia 21.6733
rfoot -0.384053 11.6486
rtoes 11.725
lfemur 6.92432 -5.51998 -17.4339
ltibia 36.4821
lfoot 9.42485 -12.7676
ltoes 10.8984
3074
root 3.6812 17.3786 -22.7439 366.973 -444.174 -727.778
lowerback 6.08519 0.607589 2.09076
upperback 3.30097 0.811124 3.91595
thorax -0.0355206 0.344017 2.81087
lowerneck -11.7562 1.53031 -7.37668
upperneck 40.2462 2.37588 0.706212
head 16.3019 -0.611846 1.86192
rclavicle 4.17448e-015 2.22639e-014
rhumerus -30.0607 -13.662 -76.7661
rradius 26.2739
rwrist -13.3244
rhand -21.123 10.8108
rfingers 7.12502
rthumb 5.25563 -19.104
lclavicle 4.17448e-015 2.22639e-014
lhumerus -37.977 9.13488 85.111
lradius 26.2991
lwrist -0.835585
lhand -16.8838 20.848
lfingers 7.12502
lthumb 9.34745 50.6207
rfemur -18.568 -6.10384 21.958
rtibia 21.2803
rfoot -0.82738 11.6184
rtoes 9.98846
lfemur 6.00625 -5.32539 -16.8467
ltibia 38.0806
lfoot 11.21 -12.8181
ltoes 13.2729
3075
root 3.57539 17.4011 -22.7809 370.888 -443.633 -731.711
lowerback 6.16213 0.507133 2.37526
upperback 3.25277 0.692656 4.14796
thorax -0.122227 0.28304 2.89816
lowerneck -11.8051 1.57349 -7.38936
upperneck 40.3428 2.37165 0.905986
head 16.3581 -0.592054 1.95383
rclavicle -1.33186e-014 -1.27222e-014
rhumerus -30.0035 -13.6967 -76.6307
rradius 26.3611
rwrist -13.02
rhand -21.2176 10.8227
rfingers 7.12502
rthumb 5.16426 -19.0944
lclavicle -1.33186e-014 -1.27222e-014
lhumerus -38.0995 9.08255 85.1633
lradius 26.2309
lwrist -0.0624587
lhand -14.1474 21.573
lfingers 7.12502
lthumb 11.987 51.2097
rfemur -18.0093 -6.06663 22.5578
rtibia 21.0836
rfoot -0.995949 11.1741
rtoes 11.0854
lfemur 5.02665 -5.01913 -15.8121
ltibia 39.6589
lfoot 12.6082 -13.3863
ltoes 13.5074
3076
root 3.47089 17.4324 -22.8153 373.297 -443.071 -734.214
lowerback 6.33168 0.354143 2.77378
upperback 3.21928 0.517247 4.21229
thorax -0.240985 0.196879 2.75122
lowerneck -11.8027 1.56358 -7.19573
upperneck 40.4229 2.28521 0.922743
head 16.4057 -0.60131 1.91336
rclavicle 1.35174e-014 -3.18055e-015
rhumerus -29.978 -13.7566 -76.7302
rradius 26.5073
rwrist -12.6498
rhand -21.0875 10.6468
rfingers 7.12502
rthumb 5.28987 -19.2672
lclavicle 1.35174e-014 -3.18055e-015
lhumerus -38.2499 8.91976 85.088
lradius 26.0779
lwrist -0.322489
lhand -11.5782 21.9346
lfingers 7.12502
lthumb 14.4635 51.4106
rfemur -17.3895 -6.11242 23.0732
rtibia 20.9197
rfoot -1.22074 10.8137
rtoes 11.542
lfemur 4.10491 -4.8872 -14.9955
ltibia 41.3062
lfoot 13.4988 -13.7674
ltoes 12.4209
3077
root 3.3681 17.466 -22.8454 373.711 -442.513 -734.683
lowerback 6.51081 0.190612 3.03369
upperback 3.15602 0.327603 4.19181
thorax -0.398238 0.104004 2.59617
lowerneck -11.715 1.46379 -7.04561
upperneck 40.3922 2.11016 0.832422
head 16.3814 -0.662698 1.81635
rclavicle 7.7526e-015 1.90833e-014
rhumerus -30.082 -13.4077 -76.9723
rradius 26.8682
rwrist -12.4592
rhand -21.1671 10.4962
rfingers 7.12502
rthumb 5.213 -19.4196
lclavicle 7.7526e-015 1.90833e-014
lhumerus -38.5992 8.55169 85.1409
lradius 25.6903
lwrist -2.09607
lhand -11.4694 20.6722
lfingers 7.12502
lthumb 14.5683 50.1406
rfemur -16.7217 -6.02699 23.2601
rtibia 20.6955
rfoot -1.39245 10.2218
rtoes 13.246
lfemur 3.14754 -4.93438 -14.4857
ltibia 43.0151
lfoot 14.2758 -13.7193
ltoes 13.3025
3078
root 3.27528 17.4776 -22.8711 375.167 -441.857 -736.131
lowerback 6.62888 0.0774128 3.34989
upperback 3.09044 0.202804 4.34112
thorax -0.526732 0.0405171 2.58256
lowerneck -11.6271 1.34325 -7.1211
upperneck 40.3064 1.90566 0.929509
head 16.322 -0.738823 1.83831
rclavicle -4.96962e-015 7.95139e-015
rhumerus -30.1535 -12.9753 -76.9301
rradius 27.2498
rwrist -12.5294
rhand -21.2536 10.5985
rfingers 7.12502
rthumb 5.12952 -19.3195
lclavicle -4.96962e-015 7.95139e-015
lhumerus -38.9057 7.63416 85.7713
lradius 25.4815
lwrist -3.63894
lhand -12.9569 20.3548
lfingers 7.12502
lthumb 13.1348 49.9211
rfemur -16.2656 -5.85365 23.6033
rtibia 20.5643
rfoot -1.55098 9.50084
rtoes 15.0088
lfemur 2.03921 -4.84997 -13.7302
ltibia 44.7619
lfoot 14.6205 -13.8725
ltoes 13.861
3079
root 3.18641 17.4824 -22.8946 376.978 -441.197 -737.951
lowerback 6.70372 -0.0124396 3.7423
upperback 3.07403 0.106482 4.53016
thorax -0.581071 -0.00943002 2.56614
lowerneck -11.6308 1.28317 -7.10729
upperneck 40.2924 1.77177 1.0433
head 16.3197 -0.772565 1.86533
rclavicle -4.77083e-015 3.65764e-014
rhumerus -30.0702 -12.8098 -76.8128
rradius 27.4585
rwrist -12.6368
rhand -21.2165 10.7613
rfingers 7.12502
rthumb 5.16535 -19.1558
lclavicle -4.77083e-015 3.65764e-014
lhumerus -38.9221 7.21826 85.9848
lradius 25.2797
lwrist -4.33022
lhand -11.4499 20.263
lfingers 7.12502
lthumb 14.587 49.7301
rfemur -15.8939 -5.84791 24.1054
rtibia 20.4384
rfoot -1.80439 9.07062
rtoes 15.3521
lfemur 0.916293 -4.61054 -12.9047
ltibia 46.4985
lfoot 13.9529 -14.1372
ltoes 10.6399
3080
root 3.09217 17.5085 -22.9107 378.353 -440.605 -739.376
lowerback 6.73541 -0.157691 4.19993
upperback 3.10404 -0.0663011 4.68174
thorax -0.562682 -0.0965395 2.47997
lowerneck -11.7164 1.21281 -7.19076
upperneck 40.2967 1.69157 1.06923
head 16.3476 -0.813461 1.88017
rclavicle 1.61016e-014 5.88403e-014
rhumerus -29.915 -12.7224 -76.763
rradius 27.6172
rwrist -12.3943
rhand -21.1454 10.8913
rfingers 7.12502
rthumb 5.234 -19.024
lclavicle 1.61016e-014 5.88403e-014
lhumerus -38.9547 6.97739 86.1534
lradius 25.1027
lwrist -5.47297
lhand -9.30339 19.4826
lfingers 7.12502
lthumb 16.6544 48.7881
rfemur -15.2646 -5.99425 24.5346
rtibia 20.0879
rfoot -2.03913 8.79035
rtoes 15.5664
lfemur -0.0774935 -4.52839 -12.2854
ltibia 48.2124
lfoot 12.4981 -13.7222
ltoes 6.00476
3081
root 3.00018 17.5352 -22.9238 378.732 -440.062 -739.791
lowerback 6.77845 -0.359013 4.44755
upperback 3.12931 -0.325128 4.88144
thorax -0.555533 -0.229102 2.56825
lowerneck -11.8145 1.18924 -7.61004
upperneck 40.3011 1.73667 1.20936
head 16.3676 -0.83895 2.02563
rclavicle 1.19271e-014 1.43125e-014
rhumerus -29.7338 -11.9292 -76.8407
rradius 27.9633
rwrist -12.1576
rhand -21.8681 10.5676
rfingers 7.12502
rthumb 4.5361 -19.3639
lclavicle 1.19271e-014 1.43125e-014
lhumerus -39.0543 7.03524 86.434
lradius 25.0501
lwrist -6.33613
lhand -8.91467 18.6948
lfingers 7.12502
lthumb 17.0286 47.9684
rfemur -14.6509 -6.34114 24.8041
rtibia 19.7298
rfoot -2.2376 8.66258
rtoes 15.3583
lfemur -1.03209 -4.61728 -11.9047
ltibia 49.8406
lfoot 10.8577 -12.6622
ltoes 2.62407
3082
root 2.91906 17.5407 -22.946 377.923 -439.597 -738.928
lowerback 6.84058 -0.510643 4.31077
upperback 3.11909 -0.532178 5.03461
thorax -0.595334 -0.337094 2.82041
lowerneck -11.7978 1.19654 -7.88922
upperneck 40.219 1.80422 1.28834
head 16.3126 -0.836222 2.12058
rclavicle 2.70347e-014 -1.59028e-015
rhumerus -29.5655 -10.9347 -76.9871
rradius 28.4583
rwrist -12.2586
rhand -22.9478 9.99282
rfingers 7.12502
rthumb 3.49348 -19.9583
lclavicle 2.70347e-014 -1.59028e-015
lhumerus -39.0878 7.00514 86.8047
lradius 25.0531
lwrist -7.12368
lhand -9.28297 18.8638
lfingers 7.12502
lthumb 16.674 48.1676
rfemur -14.2857 -6.48976 24.8452
rtibia 19.5367
rfoot -2.38757 8.38326
rtoes 15.2734
lfemur -2.15665 -4.6437 -11.7204
ltibia 51.359
lfoot 9.34724 -11.5318
ltoes 1.08801
3083
root 2.84228 17.5471 -22.9677 376.842 -439.161 -737.743
lowerback 6.84029 -0.606913 4.13924
upperback 3.11032 -0.669518 5.09288
thorax -0.599617 -0.407666 2.98744
lowerneck -11.6672 1.15556 -7.82776
upperneck 40.0471 1.7976 1.0888
head 16.1959 -0.84499 2.01765
rclavicle 1.78906e-015 2.06736e-014
rhumerus -29.3989 -11.2508 -76.626
rradius 28.7629
rwrist -12.8175
rhand -21.7534 10.8511
rfingers 7.12502
rthumb 4.64691 -19.078
lclavicle 1.78906e-015 2.06736e-014
lhumerus -39.1071 6.86253 87.1004
lradius 25.1378
lwrist -8.16525
lhand -9.36217 19.1803
lfingers 7.12502
lthumb 16.5978 48.4905
rfemur -13.9443 -6.64645 24.8114
rtibia 19.2223
rfoot -2.41537 8.13183
rtoes 15.5362
lfemur -3.25401 -4.61079 -11.6014
ltibia 52.7805
lfoot 7.91738 -10.5697
ltoes 3.55206
